<svg width="30" height="24" viewBox="0 0 30 24" xmlns="http://www.w3.org/2000/svg"><title>Shape</title><path d="M30 2.84a12.46 12.46 0 0 1-3.535.954A6.094 6.094 0 0 0 29.171.443a12.443 12.443 0 0 1-3.908 1.47A6.193 6.193 0 0 0 20.77 0c-3.399 0-6.155 2.712-6.155 6.056 0 .475.055.937.16 1.38A17.569 17.569 0 0 1 2.089 1.108a5.954 5.954 0 0 0-.834 3.045c0 2.102 1.087 3.955 2.738 5.041a6.206 6.206 0 0 1-2.787-.757l-.001.076c0 2.934 2.122 5.382 4.937 5.939a6.258 6.258 0 0 1-2.78.103c.784 2.406 3.057 4.158 5.75 4.206a12.476 12.476 0 0 1-7.644 2.593c-.497 0-.987-.029-1.468-.085a17.628 17.628 0 0 0 9.435 2.722c11.32 0 17.512-9.23 17.512-17.232 0-.263-.006-.524-.018-.784A12.397 12.397 0 0 0 30 2.84" fill="#00ACED" fill-rule="evenodd"/></svg>