<?xml version="1.0" encoding="UTF-8" standalone="no"?>
<svg width="82px" height="82px" viewBox="0 0 82 82" version="1.1" xmlns="http://www.w3.org/2000/svg" xmlns:xlink="http://www.w3.org/1999/xlink" xmlns:sketch="http://www.bohemiancoding.com/sketch/ns">
    <!-- Generator: Sketch 3.4.4 (17249) - http://www.bohemiancoding.com/sketch -->
    <title>Artboard 1</title>
    <desc>Created with Sketch.</desc>
    <defs></defs>
    <g id="Page-1" stroke="none" stroke-width="1" fill="none" fill-rule="evenodd" sketch:type="MSPage">
        <g id="Artboard-1" sketch:type="MSArtboardGroup">
            <g id="dribbble" sketch:type="MSLayerGroup" transform="translate(1.000000, 1.000000)">
                <g id="Page-1" sketch:type="MSShapeGroup">
                    <g id="dribbble">
                        <circle id="Oval-1" stroke="#E6E6E6" stroke-width="2" fill="#F6F6F6" cx="40" cy="40" r="40"></circle>
                        <path d="M40.4591905,20 C29.15921,20.0008562 20,29.160637 20,40.4609029 C20,51.7591709 29.15921,60.9199982 40.4591905,60.9199982 C51.7591709,60.9199982 60.9187614,51.7591709 60.9199982,40.4609029 C60.9187614,29.160637 51.7591709,20.0008562 40.4591905,20 L40.4591905,20 L40.4591905,20 L40.4591905,20 L40.4591905,20 Z M52.9952847,30.6083352 C54.9915423,33.1432579 56.2414508,36.2821097 56.3990927,39.7098922 C54.0893591,39.2196517 51.9070137,38.9810484 49.8725111,38.9810484 L49.8725111,38.9805728 L49.8574794,38.9805728 C48.2195074,38.9805728 46.6822854,39.1292717 45.2334455,39.3862365 C44.8813439,38.5232497 44.5243902,37.6943219 44.1647727,36.9004044 C47.3914359,35.4851479 50.4885225,33.469958 52.9952847,30.6083352 L52.9952847,30.6083352 L52.9952847,30.6083352 L52.9952847,30.6083352 L52.9952847,30.6083352 Z M40.4591905,24.4980726 C44.2243284,24.4980726 47.6783688,25.8143868 50.4129838,28.0057702 C48.3203526,30.5111053 45.5582429,32.3255563 42.5743691,33.6067649 C40.4777421,29.5525059 38.4518018,26.6521624 37.066894,24.8790008 C38.1631565,24.6357358 39.2947148,24.4980726 40.4591905,24.4980726 L40.4591905,24.4980726 L40.4591905,24.4980726 L40.4591905,24.4980726 L40.4591905,24.4980726 Z M33.4086899,26.162017 C34.5166542,27.4707202 36.7349613,30.3492775 39.1042507,34.8435446 C34.2856619,36.2779236 29.4334896,36.6148985 26.49766,36.6140424 C26.4139396,36.6140424 26.3311704,36.6140424 26.2499235,36.6131861 L26.2472597,36.6131861 C25.7528332,36.6131861 25.3276664,36.6053849 24.9727107,36.5945393 C26.1180638,32.0114142 29.2578669,28.2157373 33.4086899,26.162017 L33.4086899,26.162017 L33.4086899,26.162017 L33.4086899,26.162017 L33.4086899,26.162017 Z M24.4967407,40.4609029 C24.4967407,40.3858399 24.4994046,40.3095401 24.503876,40.230957 C24.9596769,40.2477963 25.544198,40.2622571 26.2477354,40.2622571 L26.2517311,40.2622571 C29.4604134,40.241327 35.06274,39.9732311 40.74032,38.1807568 C41.0498004,38.8574656 41.3561412,39.5620494 41.6589619,40.2935571 C37.867471,41.5616369 34.881314,43.581869 32.6726157,45.593729 C30.5463059,47.5304308 29.1097388,49.4486762 28.2703459,50.7292188 C25.921511,47.9482721 24.4979775,44.3744544 24.4967407,40.4609029 L24.4967407,40.4609029 L24.4967407,40.4609029 L24.4967407,40.4609029 L24.4967407,40.4609029 Z M40.4591905,56.4240186 C36.9068737,56.4240186 33.6327373,55.249173 30.9766101,53.2778412 C31.5411525,52.3480684 32.7515793,50.5631098 34.6790529,48.7186907 C36.6621816,46.8183311 39.3997459,44.8620311 42.9740392,43.6978408 C44.1889375,47.1034564 45.2882443,50.9965535 46.1256394,55.3788446 C44.3615158,56.0506062 42.4553528,56.4240186 40.4591905,56.4240186 L40.4591905,56.4240186 L40.4591905,56.4240186 L40.4591905,56.4240186 L40.4591905,56.4240186 Z M49.4934856,53.5895098 C48.6835852,49.6262017 47.6654301,46.052384 46.5474764,42.8630146 C47.5841832,42.7143156 48.6724542,42.6304048 49.8211372,42.6304048 L49.8624265,42.6304048 L49.8650904,42.6304048 L49.8677542,42.6304048 C51.7716339,42.6304048 53.8637895,42.8670103 56.1327093,43.3825571 C55.3472591,47.6033057 52.9025263,51.2383916 49.4934856,53.5895098 L49.4934856,53.5895098 L49.4934856,53.5895098 L49.4934856,53.5895098 L49.4934856,53.5895098 Z" id="Dribbble" fill="#515151"></path>
                    </g>
                </g>
            </g>
        </g>
    </g>
</svg>