<?xml version="1.0" encoding="UTF-8" standalone="no"?>
<svg width="62px" height="62px" viewBox="0 0 62 62" version="1.1" xmlns="http://www.w3.org/2000/svg" xmlns:xlink="http://www.w3.org/1999/xlink" xmlns:sketch="http://www.bohemiancoding.com/sketch/ns">
    <!-- Generator: Sketch 3.4.4 (17249) - http://www.bohemiancoding.com/sketch -->
    <title>dribbble</title>
    <desc>Created with Sketch.</desc>
    <defs></defs>
    <g id="Page-1" stroke="none" stroke-width="1" fill="none" fill-rule="evenodd" sketch:type="MSPage">
        <g id="dribbble" sketch:type="MSLayerGroup" transform="translate(1.000000, 1.000000)">
            <g id="Page-1" sketch:type="MSShapeGroup">
                <g id="Artboard-1">
                    <g id="dribbble">
                        <g id="Page-1">
                            <g id="dribbble">
                                <circle id="Oval-1" stroke="#E6E6E6" stroke-width="2" fill="#F6F6F6" cx="30" cy="30" r="30"></circle>
                                <path d="M30.3443929,15 C21.8694075,15.0006422 15,21.8704778 15,30.3456772 C15,38.8193782 21.8694075,45.6899987 30.3443929,45.6899987 C38.8193782,45.6899987 45.6890711,38.8193782 45.6899987,30.3456772 C45.6890711,21.8704778 38.8193782,15.0006422 30.3443929,15 L30.3443929,15 L30.3443929,15 L30.3443929,15 L30.3443929,15 L30.3443929,15 Z M39.7464635,22.9562514 C41.2436567,24.8574434 42.1810881,27.2115823 42.2993195,29.7824192 C40.5670193,29.4147388 38.9302603,29.2357863 37.4043833,29.2357863 L37.4043833,29.2354296 L37.3931096,29.2354296 C36.1646305,29.2354296 35.011714,29.3469538 33.9250841,29.5396774 C33.6610079,28.8924373 33.3932926,28.2707414 33.1235795,27.6753033 C35.5435769,26.6138609 37.8663919,25.1024685 39.7464635,22.9562514 L39.7464635,22.9562514 L39.7464635,22.9562514 L39.7464635,22.9562514 L39.7464635,22.9562514 L39.7464635,22.9562514 Z M30.3443929,18.3735545 C33.1682463,18.3735545 35.7587766,19.3607901 37.8097379,21.0043277 C36.2402645,22.883329 34.1686822,24.2441672 31.9307768,25.2050737 C30.3583066,22.1643794 28.8388514,19.9891218 27.8001705,18.6592506 C28.6223674,18.4768019 29.4710361,18.3735545 30.3443929,18.3735545 L30.3443929,18.3735545 L30.3443929,18.3735545 L30.3443929,18.3735545 L30.3443929,18.3735545 L30.3443929,18.3735545 Z M25.0565174,19.6215128 C25.8874907,20.6030402 27.551221,22.7619581 29.328188,26.1326585 C25.7142464,27.2084427 22.0751172,27.4611739 19.873245,27.4605318 C19.8104547,27.4605318 19.7483778,27.4605318 19.6874426,27.4598896 L19.6854448,27.4598896 C19.3146249,27.4598896 18.9957498,27.4540387 18.729533,27.4459045 C19.5885479,24.0085606 21.9434002,21.161803 25.0565174,19.6215128 L25.0565174,19.6215128 L25.0565174,19.6215128 L25.0565174,19.6215128 L25.0565174,19.6215128 L25.0565174,19.6215128 Z M18.3725555,30.3456772 C18.3725555,30.2893799 18.3745535,30.2321551 18.377907,30.1732177 C18.7197577,30.1858472 19.1581485,30.1966928 19.6858016,30.1966928 L19.6887983,30.1966928 C22.0953101,30.1809952 26.297055,29.9799233 30.55524,28.6355676 C30.7873503,29.1430992 31.0171059,29.671537 31.2442214,30.2201678 C28.4006033,31.1712277 26.1609855,32.6864018 24.5044618,34.1952968 C22.9097294,35.6478231 21.8323041,37.0865072 21.2027594,38.0469141 C19.4411333,35.9612041 18.3734831,33.2808408 18.3725555,30.3456772 L18.3725555,30.3456772 L18.3725555,30.3456772 L18.3725555,30.3456772 L18.3725555,30.3456772 L18.3725555,30.3456772 Z M30.3443929,42.318014 C27.6801553,42.318014 25.224553,41.4368798 23.2324576,39.9583809 C23.6558644,39.2610513 24.5636845,37.9223324 26.0092897,36.539018 C27.4966362,35.1137483 29.5498094,33.6465233 32.2305294,32.7733806 C33.1417031,35.3275923 33.9661832,38.2474151 34.5942296,41.5341335 C33.2711369,42.0379547 31.8415146,42.318014 30.3443929,42.318014 L30.3443929,42.318014 L30.3443929,42.318014 L30.3443929,42.318014 L30.3443929,42.318014 L30.3443929,42.318014 Z M37.1201142,40.1921324 C36.5126889,37.2196513 35.7490726,34.539288 34.9106073,32.147261 C35.6881374,32.0357367 36.5043407,31.9728036 37.3658529,31.9728036 L37.3968199,31.9728036 L37.3988178,31.9728036 L37.4008156,31.9728036 C38.8287254,31.9728036 40.3978421,32.1502577 42.099532,32.5369178 C41.5104443,35.7024793 39.6768947,38.4287937 37.1201142,40.1921324 L37.1201142,40.1921324 L37.1201142,40.1921324 L37.1201142,40.1921324 L37.1201142,40.1921324 L37.1201142,40.1921324 Z" id="Dribbble" fill="#515151"></path>
                            </g>
                        </g>
                    </g>
                </g>
            </g>
        </g>
    </g>
</svg>