<?xml version="1.0" encoding="UTF-8" standalone="no"?>
<svg width="40px" height="40px" viewBox="0 0 40 40" version="1.1" xmlns="http://www.w3.org/2000/svg" xmlns:xlink="http://www.w3.org/1999/xlink" xmlns:sketch="http://www.bohemiancoding.com/sketch/ns">
    <!-- Generator: Sketch 3.4.4 (17249) - http://www.bohemiancoding.com/sketch -->
    <title>dribbble</title>
    <desc>Created with Sketch.</desc>
    <defs></defs>
    <g id="Page-1" stroke="none" stroke-width="1" fill="none" fill-rule="evenodd" sketch:type="MSPage">
        <g id="dribbble" sketch:type="MSLayerGroup" fill="#000000">
            <g id="Page-1" sketch:type="MSShapeGroup">
                <g id="dribbble6">
                    <path d="M19.9582367,0 C8.934942,0.000835266821 0,8.93633411 0,19.9599072 C0,30.9815313 8.934942,39.918051 19.9582367,39.918051 C30.9815313,39.918051 39.9168445,30.9815313 39.918051,19.9599072 C39.9168445,8.93633411 30.9815313,0.000835266821 19.9582367,0 L19.9582367,0 L19.9582367,0 Z M32.1873782,10.3485847 C34.1347564,12.8214385 35.3540603,15.8834339 35.5078422,19.2272854 C33.2546636,18.7490487 31.1257541,18.5162877 29.1410673,18.5162877 L29.1410673,18.5158237 L29.1264037,18.5158237 C27.5285383,18.5158237 26.0289559,18.6608817 24.6155916,18.9115545 C24.2721114,18.0696984 23.9238979,17.2610673 23.5730858,16.4865893 C26.7207425,15.1059861 29.7419954,13.1401392 32.1873782,10.3485847 L32.1873782,10.3485847 L32.1873782,10.3485847 Z M19.9582367,4.38793503 C23.6311833,4.38793503 27.0006497,5.67201856 29.6683063,7.80974478 C27.6269142,10.2537355 24.9324362,12.0237587 22.0216241,13.2735963 C19.9763341,9.31860789 18,6.48928074 16.6490023,4.75953596 C17.7184223,4.52222738 18.8222738,4.38793503 19.9582367,4.38793503 L19.9582367,4.38793503 L19.9582367,4.38793503 Z M13.0803712,6.01113689 C14.1612065,7.28779582 16.3251972,10.0958701 18.6364733,14.4800928 C13.9358701,15.8793503 9.2025058,16.2080742 6.33856148,16.207239 C6.25689095,16.207239 6.17614849,16.207239 6.09689095,16.2064037 L6.09429234,16.2064037 C5.61197216,16.2064037 5.19721578,16.1987935 4.85095128,16.1882135 C5.96825986,11.7173086 9.03118329,8.01457077 13.0803712,6.01113689 L13.0803712,6.01113689 L13.0803712,6.01113689 Z M4.38663573,19.9599072 C4.38663573,19.8866821 4.38923434,19.8122506 4.39359629,19.7355916 C4.83823666,19.7520186 5.40844548,19.7661253 6.09475638,19.7661253 L6.09865429,19.7661253 C9.2287703,19.7457077 14.6939211,19.4841763 20.2324826,17.7355916 C20.5343852,18.3957309 20.8332251,19.0830626 21.1286311,19.7966589 C17.4299768,21.0336891 14.5169374,23.0044548 12.3623202,24.9670534 C10.2880742,26.8563341 8.88668213,28.7276102 8.06784223,29.9767981 C5.77651972,27.2639443 4.38784223,23.7776334 4.38663573,19.9599072 L4.38663573,19.9599072 L4.38663573,19.9599072 Z M19.9582367,35.5321578 C16.4929002,35.5321578 13.2989327,34.3860789 10.7078422,32.4630162 C11.2585615,31.5560093 12.4393503,29.8147564 14.3196288,28.0154988 C16.2541995,26.1616705 18.9247332,24.2532715 22.4115081,23.117587 C23.5966589,26.4398144 24.6690487,30.237587 25.4859397,34.5125754 C23.7650116,35.1678886 21.905522,35.5321578 19.9582367,35.5321578 L19.9582367,35.5321578 L19.9582367,35.5321578 Z M28.7713225,32.7670534 C27.9812529,28.9007889 26.9880278,25.414478 25.8974478,22.3032019 C26.9087703,22.1581439 27.9703944,22.0762877 29.0909513,22.0762877 L29.1312297,22.0762877 L29.1338283,22.0762877 L29.1364269,22.0762877 C30.9936891,22.0762877 33.0346172,22.3070998 35.2479814,22.8100232 C34.4817633,26.9274246 32.096891,30.4735035 28.7713225,32.7670534 L28.7713225,32.7670534 L28.7713225,32.7670534 Z" id="Dribbble"></path>
                </g>
            </g>
        </g>
    </g>
</svg>