<?xml version="1.0" encoding="UTF-8" standalone="no"?>
<svg width="62px" height="62px" viewBox="0 0 62 62" version="1.1" xmlns="http://www.w3.org/2000/svg" xmlns:xlink="http://www.w3.org/1999/xlink" xmlns:sketch="http://www.bohemiancoding.com/sketch/ns">
    <!-- Generator: Sketch 3.4.4 (17249) - http://www.bohemiancoding.com/sketch -->
    <title>github</title>
    <desc>Created with Sketch.</desc>
    <defs></defs>
    <g id="Page-1" stroke="none" stroke-width="1" fill="none" fill-rule="evenodd" sketch:type="MSPage">
        <g id="github" sketch:type="MSLayerGroup" transform="translate(1.000000, 1.000000)">
            <g id="Page-1" sketch:type="MSShapeGroup">
                <g id="Artboard-1">
                    <g id="github">
                        <g id="Page-1">
                            <g id="Oval-1-+-github">
                                <circle id="Oval-1" stroke="#E6E6E6" stroke-width="2" fill="#F6F6F6" cx="30" cy="30" r="30"></circle>
                                <g id="github" transform="translate(14.250000, 15.000000)" fill="#515151">
                                    <path d="M15.6549998,0 C7.01053345,0 0,7.00957231 0,15.6569221 C0,22.5742252 4.48562649,28.4419668 10.7070664,30.5122559 C11.4903932,30.6564265 11.7758508,30.1729746 11.7758508,29.7577634 C11.7758508,29.3867645 11.7623949,28.401599 11.7547058,27.0954138 C7.39979395,28.0411726 6.48094695,24.9962905 6.48094695,24.9962905 C5.76874441,23.1874307 4.74225007,22.705901 4.74225007,22.705901 C3.32072842,21.7351526 4.84989743,21.7543754 4.84989743,21.7543754 C6.42135646,21.8649061 7.2479343,23.3681245 7.2479343,23.3681245 C8.6444664,25.7603945 10.9127497,25.069337 11.8046849,24.6685429 C11.9469332,23.6574267 12.3515719,22.9673303 12.7985006,22.5761476 C9.322068,22.1811202 5.66686389,20.8374507 5.66686389,14.8380334 C5.66686389,13.1291317 6.2771859,11.7306774 7.27869068,10.6369034 C7.11721966,10.240915 6.57994406,8.64831097 7.4324726,6.49344173 C7.4324726,6.49344173 8.74634692,6.07246372 11.7374053,8.09854057 C12.9859223,7.75060897 14.3257474,7.5776043 15.6569222,7.57087635 C16.9871357,7.5776043 18.3259996,7.75060897 19.5764389,8.09854057 C22.565575,6.07246372 23.8775271,6.49344173 23.8775271,6.49344173 C24.7319779,8.64831097 24.1947023,10.240915 24.0341924,10.6369034 C25.0376194,11.7306774 25.6431358,13.1291317 25.6431358,14.8380334 C25.6431358,20.8528288 21.9821649,22.1763145 18.4951597,22.5636528 C19.0564638,23.0471047 19.5572161,24.0024749 19.5572161,25.4634031 C19.5572161,27.5557984 19.5379934,29.2445162 19.5379934,29.7577634 C19.5379934,30.1768191 19.8205677,30.6641156 20.6144668,30.5112948 C26.8311011,28.4362 31.3128831,22.572303 31.3128831,15.6569221 C31.3128831,7.00957231 24.3023497,0 15.6549998,0" id="Fill-3"></path>
                                </g>
                            </g>
                        </g>
                    </g>
                </g>
            </g>
        </g>
    </g>
</svg>