<?xml version="1.0" encoding="UTF-8" standalone="no"?>
<svg width="82px" height="82px" viewBox="0 0 82 82" version="1.1" xmlns="http://www.w3.org/2000/svg" xmlns:xlink="http://www.w3.org/1999/xlink" xmlns:sketch="http://www.bohemiancoding.com/sketch/ns">
    <!-- Generator: Sketch 3.4.4 (17249) - http://www.bohemiancoding.com/sketch -->
    <title>Artboard 1</title>
    <desc>Created with Sketch.</desc>
    <defs></defs>
    <g id="Page-1" stroke="none" stroke-width="1" fill="none" fill-rule="evenodd" sketch:type="MSPage">
        <g id="Artboard-1" sketch:type="MSArtboardGroup">
            <g id="github" sketch:type="MSLayerGroup" transform="translate(1.000000, 1.000000)">
                <g id="Page-1" sketch:type="MSShapeGroup">
                    <g id="Oval-1-+-github">
                        <circle id="Oval-1" stroke="#E6E6E6" stroke-width="2" fill="#F6F6F6" cx="40" cy="40" r="40"></circle>
                        <g id="github" transform="translate(19.000000, 20.000000)" fill="#515151">
                            <path d="M20.8733331,0 C9.34737794,0 0,9.34609642 0,20.8758962 C0,30.098967 5.98083532,37.9226224 14.2760886,40.6830079 C15.3205242,40.8752353 15.7011344,40.2306328 15.7011344,39.6770179 C15.7011344,39.1823527 15.6831932,37.8687987 15.6729411,36.1272184 C9.86639193,37.3882302 8.6412626,33.3283874 8.6412626,33.3283874 C7.69165922,30.9165743 6.3230001,30.2745347 6.3230001,30.2745347 C4.42763789,28.9802035 6.4665299,29.0058339 6.4665299,29.0058339 C8.56180861,29.1532082 9.6639124,31.1574993 9.6639124,31.1574993 C11.5259552,34.3471927 14.550333,33.4257827 15.7395799,32.8913905 C15.9292443,31.5432356 16.4687625,30.6231071 17.0646675,30.1015301 C12.429424,29.574827 7.55581852,27.7832676 7.55581852,19.7840445 C7.55581852,17.505509 8.3695812,15.6409032 9.70492091,14.1825379 C9.48962621,13.6545533 8.77325875,11.5310813 9.90996347,8.65792231 C9.90996347,8.65792231 11.6617959,8.09661829 15.6498738,10.7980541 C17.3145631,10.3341453 19.1009965,10.1034724 20.8758962,10.0945018 C22.6495143,10.1034724 24.4346662,10.3341453 26.1019185,10.7980541 C30.0874334,8.09661829 31.8367028,8.65792231 31.8367028,8.65792231 C32.9759705,11.5310813 32.2596031,13.6545533 32.0455899,14.1825379 C33.3834926,15.6409032 34.1908477,17.505509 34.1908477,19.7840445 C34.1908477,27.8037718 29.3095532,29.5684194 24.660213,30.0848704 C25.4086184,30.7294729 26.0762882,32.0032999 26.0762882,33.9512042 C26.0762882,36.7410646 26.0506579,38.9926883 26.0506579,39.6770179 C26.0506579,40.2357588 26.4274236,40.8854875 27.4859558,40.6817264 C35.7748015,37.9149333 41.7505108,30.096404 41.7505108,20.8758962 C41.7505108,9.34609642 32.4031329,0 20.8733331,0" id="Fill-3"></path>
                        </g>
                    </g>
                </g>
            </g>
        </g>
    </g>
</svg>