<?xml version="1.0" encoding="UTF-8" standalone="no"?>
<svg width="41px" height="40px" viewBox="0 0 41 40" version="1.1" xmlns="http://www.w3.org/2000/svg" xmlns:xlink="http://www.w3.org/1999/xlink" xmlns:sketch="http://www.bohemiancoding.com/sketch/ns">
    <!-- Generator: Sketch 3.4.4 (17249) - http://www.bohemiancoding.com/sketch -->
    <title>github</title>
    <desc>Created with Sketch.</desc>
    <defs></defs>
    <g id="Page-1" stroke="none" stroke-width="1" fill="none" fill-rule="evenodd" sketch:type="MSPage">
        <g id="github" sketch:type="MSLayerGroup" fill="#151513">
            <g id="Page-1" sketch:type="MSShapeGroup">
                <path d="M20.36,0 C9.1175,0 0,9.11625 0,20.3625 C0,29.35875 5.83375,36.99 13.925,39.6825 C14.94375,39.87 15.315,39.24125 15.315,38.70125 C15.315,38.21875 15.2975,36.9375 15.2875,35.23875 C9.62375,36.46875 8.42875,32.50875 8.42875,32.50875 C7.5025,30.15625 6.1675,29.53 6.1675,29.53 C4.31875,28.2675 6.3075,28.2925 6.3075,28.2925 C8.35125,28.43625 9.42625,30.39125 9.42625,30.39125 C11.2425,33.5025 14.1925,32.60375 15.3525,32.0825 C15.5375,30.7675 16.06375,29.87 16.645,29.36125 C12.12375,28.8475 7.37,27.1 7.37,19.2975 C7.37,17.075 8.16375,15.25625 9.46625,13.83375 C9.25625,13.31875 8.5575,11.2475 9.66625,8.445 C9.66625,8.445 11.375,7.8975 15.265,10.5325 C16.88875,10.08 18.63125,9.855 20.3625,9.84625 C22.0925,9.855 23.83375,10.08 25.46,10.5325 C29.3475,7.8975 31.05375,8.445 31.05375,8.445 C32.165,11.2475 31.46625,13.31875 31.2575,13.83375 C32.5625,15.25625 33.35,17.075 33.35,19.2975 C33.35,27.12 28.58875,28.84125 24.05375,29.345 C24.78375,29.97375 25.435,31.21625 25.435,33.11625 C25.435,35.8375 25.41,38.03375 25.41,38.70125 C25.41,39.24625 25.7775,39.88 26.81,39.68125 C34.895,36.9825 40.72375,29.35625 40.72375,20.3625 C40.72375,9.11625 31.60625,0 20.36,0" id="Fill-3"></path>
            </g>
        </g>
    </g>
</svg>